<?xml version="1.0" encoding="utf-8"?>
<!-- Generator: Adobe Illustrator 22.0.1, SVG Export Plug-In . SVG Version: 6.00 Build 0)  -->
<svg version="1.1" id="Layer_1" xmlns="http://www.w3.org/2000/svg" xmlns:xlink="http://www.w3.org/1999/xlink" x="0px" y="0px"
	 viewBox="0 0 256 256" style="enable-background:new 0 0 256 256;" xml:space="preserve">
<style type="text/css">
	.st0{fill:url(#XMLID_3_);}
	.st1{fill:#FFFFFF;}
</style>
<linearGradient id="XMLID_3_" gradientUnits="userSpaceOnUse" x1="9.094947e-13" y1="790" x2="256.9922" y2="533.0078" gradientTransform="matrix(1 0 0 1 0 -534)">
	<stop  offset="0" style="stop-color:#2E2975"/>
	<stop  offset="1" style="stop-color:#F2295B"/>
</linearGradient>
<rect id="XMLID_1_" class="st0" width="256" height="256"/>
<path class="st1" d="M35.8,36.2v83.2H119V36.2H35.8z M85.9,94.6H74.7V69.7h-5.9v-8.8h17v33.7H85.9z"/>
<path class="st1" d="M136.4,35.1v83.2h83.2V35.1H136.4z M192.9,94.8h-26.4v-7l11.8-12.1c0.7-0.8,1.3-1.5,1.8-2.3s0.7-1.4,0.7-2
	s-0.2-1-0.6-1.3c-0.4-0.3-1-0.5-1.7-0.5c-1.2,0-2.7,0.4-4.3,1.2c-1.6,0.8-3.2,1.8-4.9,3.2l-4.1-8c5.1-3.5,10.1-5.2,15-5.2
	c2.3,0,4.4,0.4,6.2,1.2c1.9,0.8,3.3,1.8,4.4,3.2c1.1,1.4,1.6,2.9,1.6,4.7c0,1.8-0.6,3.7-1.7,5.5c-1.2,1.8-2.8,3.8-4.9,5.9l-5.2,5.1
	h12.3L192.9,94.8L192.9,94.8z"/>
<path class="st1" d="M34.7,134.9v83.2h83.2v-83.2H34.7z M89.7,189.2c-1.2,1.7-2.8,3-4.9,4c-2.1,0.9-4.6,1.4-7.4,1.4
	c-2.6,0-5.2-0.4-7.7-1.2s-4.7-1.9-6.4-3.2l3.9-7.5c3,2.5,6,3.7,9.2,3.7c2.7,0,4-1,4-3c0-1-0.3-1.7-1-2.2s-1.7-0.8-3-0.8h-6.3v-5.8
	l6.5-6.2H65.2v-8h24.6v6.3l-7.9,7l1.6,0.3c2.4,0.5,4.3,1.6,5.8,3.2c1.5,1.6,2.2,3.7,2.2,6.2C91.4,185.6,90.8,187.5,89.7,189.2z"/>
<path class="st1" d="M136.4,134.9v83.2h83.2v-83.2H136.4z M193.2,187.8h-3.8v6.5h-10.1v-6.5h-14.4v-7.2l8.2-19.9h10.5l-7.6,19.2h3.4
	v-6.4h10.1v6.4h3.8L193.2,187.8L193.2,187.8z"/>
</svg>
